<svg width="36" height="36" viewBox="0 0 36 36" fill="none" xmlns="http://www.w3.org/2000/svg">
<g clip-path="url(#clip0_1_6011)">
<path d="M10.4399 12.0898L2.77988 19.7598C-0.920117 23.4598 -0.920117 29.4798 2.77988 33.1898C6.47988 36.8898 12.5699 36.9598 16.2799 33.2598L17.8299 31.6998C17.2899 30.4298 16.9799 29.0298 16.9799 27.5598C16.9799 25.0698 17.8899 22.7998 19.3399 20.9898L10.4399 12.0898Z" fill="#3580DB"/>
<path d="M33.1797 2.78C31.3297 0.93 28.8997 0 26.4697 0C24.0397 0 21.6097 0.93 19.7597 2.78L11.9297 10.61L20.8197 19.5C22.6497 17.98 24.9697 17.02 27.5297 17.02C28.9997 17.02 30.3997 17.33 31.6697 17.87L33.1897 16.21C36.8797 12.5 36.8797 6.48 33.1797 2.78Z" fill="#3580DB"/>
<path d="M19.0898 27.56C19.0898 31.86 22.3198 35.37 26.4698 35.89V19.23C22.3098 19.75 19.0898 23.26 19.0898 27.56Z" fill="#8B7DDE"/>
<path d="M28.5801 19.23V35.89C32.7401 35.37 35.9601 31.86 35.9601 27.56C35.9601 23.26 32.7401 19.75 28.5801 19.23Z" fill="#8B7DDE"/>
</g>
<defs>
<clipPath id="clip0_1_6011">
<rect width="36" height="36" fill="white"/>
</clipPath>
</defs>
</svg>
