<svg width="194" height="48" viewBox="0 0 194 48" fill="none" xmlns="http://www.w3.org/2000/svg">
<g clip-path="url(#clip0_1_5725)">
<path fill-rule="evenodd" clip-rule="evenodd" d="M18 0H30C31.4 0 32.6 1.1 32.6 2.6V14.7L15.5 19L14 19.4C13.5 19.5 13.2 19.9 13.2 20.4C13.2 20.9 13.5 21.3 14 21.5L20.8 23.8L15.6 29L12.2 32.4H2.6C1.1 32.5 0 31.4 0 30V18C0 16.6 1.1 15.4 2.6 15.4H15.5V2.6C15.4 1.1 16.6 0 18 0Z" fill="#8B7DDE"/>
<path fill-rule="evenodd" clip-rule="evenodd" d="M32.5004 19L33.3004 16H45.4004C46.8004 16 48.0004 17.1 48.0004 18.6V30.6C48.0004 32 46.9004 33.2 45.4004 33.2H32.5004V46.1C32.5004 47.5 31.4004 48.7 29.9004 48.7H18.0004C16.6004 48.7 15.4004 47.6 15.4004 46.1V36.6L24.0004 28L26.3004 34.8C26.5004 35.3 26.9004 35.6 27.4004 35.6C27.9004 35.6 28.3004 35.3 28.4004 34.8L32.5004 19Z" fill="#3580DB"/>
<path fill-rule="evenodd" clip-rule="evenodd" d="M23.5004 29.5998L24.5004 28.5998L24.0004 27.2998L15.4004 35.8998V37.6998L23.5004 29.5998Z" fill="#0170A6"/>
<path fill-rule="evenodd" clip-rule="evenodd" d="M33.3004 15.9994L28.5004 33.9994C28.4004 34.4994 28.0004 34.7994 27.5004 34.7994H27.4004C27.6004 34.7994 27.7004 34.7994 27.9004 34.7994C29.0004 34.7994 29.9004 33.9994 30.1004 32.9994L34.8004 15.3994H33.3004C33.3004 15.4994 33.3004 15.5994 33.3004 15.7994C33.4004 15.8994 33.3004 15.8994 33.3004 15.9994Z" fill="#0170A6"/>
<path d="M79.5998 12.8998V33.9998H74.4998V20.7998L69.8998 33.9998H65.4998L60.8998 20.7998V33.9998H55.7998V12.8998H61.9998L67.6998 27.5998L73.2998 12.8998H79.5998ZM88.2998 16.8998V21.2998H95.4998V25.1998H88.2998V29.8998H96.3998V33.9998H83.1998V12.7998H96.3998V16.8998H88.2998ZM118.4 23.3998C118.4 25.4998 117.9 27.2998 117 28.8998C116.1 30.4998 114.8 31.7998 113.2 32.6998C111.5 33.5998 109.6 33.9998 107.3 33.9998H99.2998V12.7998H107.3C109.6 12.7998 111.6 13.1998 113.2 14.0998C114.9 14.9998 116.1 16.1998 117 17.7998C117.9 19.3998 118.4 21.2998 118.4 23.3998ZM106.8 29.3998C108.8 29.3998 110.4 28.8998 111.5 27.7998C112.6 26.6998 113.2 25.2998 113.2 23.2998C113.2 21.2998 112.6 19.8998 111.5 18.7998C110.4 17.6998 108.8 17.1998 106.8 17.1998H104.4V29.2998H106.8V29.3998ZM126.4 12.7998V33.9998H121.3V12.7998H126.4ZM133.9 12.7998L139.1 28.7998L144.3 12.7998H149.8L142.4 33.9998H135.8L128.4 12.7998H133.9ZM164.9 30.0998H157L155.7 33.9998H150.3L158.1 12.8998H164L171.8 33.9998H166.3L164.9 30.0998ZM163.6 26.1998L161 18.3998L158.3 26.1998H163.6ZM186.5 33.9998L182 27.3998L178.2 33.9998H172.3L179.1 23.0998L172.1 12.7998H178.2L182.6 19.1998L186.4 12.7998H192.3L185.6 23.4998L192.7 33.9998H186.5Z" fill="#3580DB"/>
</g>
<defs>
<clipPath id="clip0_1_5725">
<rect width="194" height="48" fill="white"/>
</clipPath>
</defs>
</svg>
